<svg width="200" height="200" viewBox="0 0 200 200" fill="none" xmlns="http://www.w3.org/2000/svg">
<rect width="200" height="200" rx="100" fill="#AFB9C5"/>
<g clip-path="url(#clip0_3_28)">
<mask id="mask0_3_28" style="mask-type:alpha" maskUnits="userSpaceOnUse" x="0" y="0" width="200" height="200">
<path d="M0 100C0 44.7715 44.7715 0 100 0C155.228 0 200 44.7715 200 100C200 155.228 155.228 200 100 200C44.7715 200 0 155.228 0 100Z" fill="#D9D9D9"/>
</mask>
<g mask="url(#mask0_3_28)">
<path d="M30 190C30 145.817 61.3401 110 100 110C138.66 110 170 145.817 170 190C170 234.183 138.66 270 100 270C61.3401 270 30 234.183 30 190Z" fill="white"/>
</g>
</g>
<path d="M65 63C65 43.67 80.67 28 100 28V28C119.33 28 135 43.67 135 63V63C135 82.33 119.33 98 100 98V98C80.67 98 65 82.33 65 63V63Z" fill="white"/>
<defs>
<clipPath id="clip0_3_28">
<rect width="200" height="200" fill="white"/>
</clipPath>
</defs>
</svg>
